# xmcd
#
# Track frame offsets:
#	150
#	25566
#	49835
#	74638
#	95901
#	123050
#	151890
#	170653
#	206655
#	224742
#
# Disc length: 3241 seconds
#
# Revision: 1895978090
# Processed by: cddbd v1.5.2PL0 Copyright (c) Steve Scherf et al.
# Submitted via: EZCDAudioConverter 8.0.2.1
#
DISCID=930ca70a
DTITLE=Thái Hòa, Hồng Hạnh - Chữ Tình Trong Nhạc Trịnh Công Sơn. Tự Tình Khúc
DYEAR=2014
DGENRE=World Pop
TTITLE0=Thái Hòa, Hồng Hạnh - Tự Tình Khúc
TTITLE1=Thái Hòa - Tình xót xa vừa
TTITLE2=Hồng Hạnh - Tình yêu tìm thấy
TTITLE3=Thái Hòa, Volca Jennifer Thomas - Tình nhớ
TTITLE4=Đinh Tiến Dũng - Tình sâud
TTITLE5=Thái Hòa - Tình xa
TTITLE6=Hồng Hạnh - Cuối cùng cho một tình yêu
TTITLE7=Thái Hòa - Ru tình
TTITLE8=Thái Hòa, Volca Jennifer Thomas - Trong nỗi đau tình cờ
TTITLE9=Thái Hòa, Hồng Hạnh - Tình khúc Ơ Bai
EXTD=
EXTT0=
EXTT1=
EXTT2=
EXTT3=
EXTT4=
EXTT5=
EXTT6=
EXTT7=
EXTT8=
EXTT9=
PLAYORDER=
